<?xml version="1.0" encoding="utf-8"?>
<!-- Generator: Adobe Illustrator 19.2.1, SVG Export Plug-In . SVG Version: 6.00 Build 0)  -->
<svg version="1.1" xmlns="http://www.w3.org/2000/svg" xmlns:xlink="http://www.w3.org/1999/xlink" x="0px" y="0px"
	 viewBox="0 0 242 162" enable-background="new 0 0 242 162" xml:space="preserve">
<g id="Layer_1">
</g>
<g id="specctr">
	<g id="Spacing">
	</g>
	<g id="Object_Properties">
	</g>
	<g id="Dimensions">
		<g id="XMLID_2_">
			<g id="XMLID_39_">
				<g id="XMLID_45_">
					<g>
						<polygon fill="#052E47" points="120.9,0.9 82.1,37.5 120.9,64.9 130.8,31.8 						"/>
						<g>
							<defs>
								<polygon id="SVGID_109_" points="121,0.9 160,37.5 121,64.9 								"/>
							</defs>
							<clipPath id="SVGID_2_">
								<use xlink:href="#SVGID_109_"  overflow="visible"/>
							</clipPath>
							<polygon clip-path="url(#SVGID_2_)" fill="#3FA9F5" points="120.4,26 120.5,-1.1 138.1,1.2 158.6,8 							"/>
							<polyline clip-path="url(#SVGID_2_)" fill="#0F8AD3" points="121,48 121,25.7 173.3,-0.2 159.4,26.1 121.3,46.8 							"/>
							<polygon clip-path="url(#SVGID_2_)" fill="#095886" points="121,64.9 121,45.5 173.4,14.7 160.2,37.5 							"/>
						</g>
						<g opacity="0.7">
							<defs>
								<polygon id="SVGID_111_" opacity="0.7" points="121,0.9 82,37.5 121,64.9 								"/>
							</defs>
							<clipPath id="SVGID_4_">
								<use xlink:href="#SVGID_111_"  overflow="visible"/>
							</clipPath>
							<polygon clip-path="url(#SVGID_4_)" fill="#3FA9F5" points="121.8,26 121.9,-1.1 104.5,1.2 84,8 							"/>
							<polyline clip-path="url(#SVGID_4_)" fill="#0F8AD3" points="121,48 121,25.7 69.5,-0.2 83.8,26.1 121.3,46.8 							"/>
							<polygon clip-path="url(#SVGID_4_)" fill="#095886" points="121,64.9 121,45.5 69.4,14.7 82.2,37.5 							"/>
						</g>
					</g>
					<linearGradient id="SVGID_6_" gradientUnits="userSpaceOnUse" x1="124.9179" y1="3.7875" x2="101.7179" y2="50.9875">
						<stop  offset="0" style="stop-color:#FFFFFF"/>
						<stop  offset="0.7008" style="stop-color:#FFFFFF;stop-opacity:0"/>
					</linearGradient>
					<polygon opacity="0.71" fill="url(#SVGID_6_)" points="121,0.9 82.2,37.5 121,64.9 					"/>
					<linearGradient id="SVGID_8_" gradientUnits="userSpaceOnUse" x1="117.6118" y1="3.0793" x2="140.8118" y2="51.8793">
						<stop  offset="0" style="stop-color:#FFFFFF"/>
						<stop  offset="0.7008" style="stop-color:#FFFFFF;stop-opacity:0"/>
					</linearGradient>
					<polygon opacity="0.71" fill="url(#SVGID_8_)" points="121,0.9 160,37.5 121,64.9 					"/>
					<g>
						<linearGradient id="SVGID_9_" gradientUnits="userSpaceOnUse" x1="124.9179" y1="3.7875" x2="101.7179" y2="50.9875">
							<stop  offset="0" style="stop-color:#FFFFFF"/>
							<stop  offset="0.5" style="stop-color:#FFFFFF;stop-opacity:0"/>
						</linearGradient>
						<polygon opacity="0.68" fill="url(#SVGID_9_)" points="121,0.9 82.2,37.5 121,64.9 						"/>
						<linearGradient id="SVGID_10_" gradientUnits="userSpaceOnUse" x1="117.6118" y1="3.0793" x2="140.8118" y2="51.8793">
							<stop  offset="0" style="stop-color:#FFFFFF"/>
							<stop  offset="0.5" style="stop-color:#FFFFFF;stop-opacity:0"/>
						</linearGradient>
						<polygon opacity="0.68" fill="url(#SVGID_10_)" points="121,0.9 160,37.5 121,64.9 						"/>
					</g>
				</g>
				<g id="XMLID_42_">
					<g>
						<path fill-rule="evenodd" clip-rule="evenodd" fill="#0E82C6" d="M100,107.3c0,5.4-1.9,10.7-8.1,10.7c-6,0-8-5.2-8-10.7V90.6
							h-6.4v16.7c0,8.5,3.9,16.3,14.4,16.3c10.1,0,14.4-7.3,14.4-16.3V90.6H100V107.3z"/>
						<path fill-rule="evenodd" clip-rule="evenodd" fill="#0E82C6" d="M65.6,107.1c0-8.3-6.2-16.7-15.5-16.7
							c-9,0-15.7,7.9-15.7,16.6c0,8.4,6.3,16.6,15.6,16.6c2.2,0,4.3-0.5,6.2-1.3l-4.1-4.6c-0.6,0.2-1.3,0.2-2,0.2
							c-5.8,0-9.2-5.3-9.2-11c0-5.4,3.3-11,9.2-11c5.7,0,9.2,5.3,9.2,11c0,2.3-0.6,4.6-1.7,6.6l-2-2.3h-6.1l3.5,3.9l0,0l7.4,8.3h6.1
							l-4.7-5.2C64.1,115.2,65.6,111.2,65.6,107.1z"/>
						<polygon fill-rule="evenodd" clip-rule="evenodd" fill="#0E82C6" points="7.3,109.2 21.2,109.2 21.2,104.1 7.3,104.1 
							7.3,96.2 23.3,96.2 23.3,90.6 0.9,90.6 0.9,123.4 23.8,123.4 23.8,117.8 7.3,117.8 						"/>
						<path fill-rule="evenodd" clip-rule="evenodd" fill="#0E82C6" d="M185.1,90.6l-13,32.8h6.8l3-8.2h11.5l3,8.2h6.8l-12.9-32.8
							H185.1z M187.7,97.4l4.2,12.2h-8.5L187.7,97.4z"/>
						<path fill-rule="evenodd" clip-rule="evenodd" fill="#0E82C6" d="M233.2,111c3.6-1.5,5.9-5.4,5.9-9.6
							c0-5.4-4.4-10.9-10.5-10.9h-14.6v32.8h6.4v-11h6.3l6.9,11h7.2L233.2,111z M228.5,106.8h-8V96.2h7.7c2.3,0,4.4,2.3,4.4,5.3
							C232.7,104.4,230.9,106.8,228.5,106.8z"/>
						<polygon fill-rule="evenodd" clip-rule="evenodd" fill="#0E82C6" points="147.1,90.6 140.7,90.6 140.7,123.4 163.9,123.4 
							163.9,117.8 147.1,117.8 						"/>
						<rect x="120.1" y="90.6" fill-rule="evenodd" clip-rule="evenodd" fill="#0E82C6" width="6.4" height="32.8"/>
						<rect x="5.5" y="103.9" fill-rule="evenodd" clip-rule="evenodd" fill="#0E82C6" width="15.7" height="5.6"/>
					</g>
					<g>
						<path fill="#FFFFFF" d="M47.4,137h5.2v23.8h-5.2V137z"/>
						<path fill="#FFFFFF" d="M59.4,137h7.1l10.1,16.5h0.1V137H82v23.8h-6.9l-10.4-16.9h-0.1v16.9h-5.2V137z"/>
						<path fill="#FFFFFF" d="M100.6,142.8c-0.4-0.5-1-0.9-1.7-1.2c-0.7-0.3-1.4-0.4-2.1-0.4c-0.4,0-0.8,0-1.2,0.1
							c-0.4,0.1-0.8,0.2-1.1,0.4c-0.4,0.2-0.7,0.4-0.9,0.8s-0.3,0.7-0.3,1.1c0,0.7,0.3,1.3,0.8,1.6c0.5,0.4,1.2,0.7,2,1
							c0.8,0.3,1.7,0.5,2.6,0.8c0.9,0.3,1.8,0.6,2.6,1.1c0.8,0.5,1.5,1.2,2,2c0.5,0.8,0.8,1.9,0.8,3.3c0,1.3-0.2,2.5-0.7,3.5
							c-0.5,1-1.2,1.8-2,2.4c-0.8,0.6-1.8,1.1-2.9,1.4c-1.1,0.3-2.3,0.5-3.5,0.5c-1.5,0-3-0.2-4.3-0.7c-1.3-0.5-2.6-1.2-3.7-2.3
							l3.7-4.1c0.5,0.7,1.2,1.3,2,1.7c0.8,0.4,1.7,0.6,2.5,0.6c0.4,0,0.9-0.1,1.3-0.2c0.4-0.1,0.8-0.3,1.2-0.5
							c0.3-0.2,0.6-0.5,0.8-0.8c0.2-0.3,0.3-0.7,0.3-1.1c0-0.7-0.3-1.3-0.8-1.7c-0.5-0.4-1.2-0.8-2.1-1.1c-0.8-0.3-1.7-0.6-2.7-0.9
							c-1-0.3-1.9-0.7-2.7-1.2c-0.8-0.5-1.5-1.1-2.1-1.9c-0.5-0.8-0.8-1.9-0.8-3.2c0-1.3,0.3-2.4,0.8-3.4c0.5-1,1.2-1.8,2-2.4
							c0.8-0.6,1.8-1.1,2.9-1.5c1.1-0.3,2.2-0.5,3.4-0.5c1.3,0,2.6,0.2,3.9,0.6c1.3,0.4,2.4,1,3.4,1.9L100.6,142.8z"/>
						<path fill="#FFFFFF" d="M110.1,137h5.2v23.8h-5.2V137z"/>
						<path fill="#FFFFFF" d="M143.7,159c-1.5,0.8-3.2,1.4-4.8,1.7c-1.7,0.4-3.4,0.5-5.1,0.5c-1.9,0-3.6-0.3-5.1-0.9
							c-1.6-0.6-2.9-1.4-4.1-2.5c-1.1-1.1-2-2.4-2.7-3.9c-0.6-1.5-1-3.3-1-5.2c0-1.9,0.3-3.6,1-5.2c0.6-1.5,1.5-2.9,2.7-3.9
							c1.1-1.1,2.5-1.9,4.1-2.5c1.6-0.6,3.3-0.9,5.1-0.9c1.9,0,3.7,0.2,5.3,0.7c1.6,0.5,3,1.2,4.2,2.4l-3.7,4
							c-0.7-0.7-1.5-1.3-2.4-1.7c-0.9-0.4-2-0.6-3.4-0.6c-1.1,0-2.1,0.2-3,0.6c-0.9,0.4-1.7,0.9-2.3,1.6c-0.7,0.7-1.1,1.5-1.5,2.4
							c-0.3,0.9-0.5,2-0.5,3.1c0,1.1,0.2,2.1,0.5,3.1c0.3,0.9,0.8,1.7,1.5,2.4c0.6,0.7,1.4,1.2,2.3,1.6c0.9,0.4,1.9,0.6,3,0.6
							c1.1,0,2.1-0.1,3-0.4c0.8-0.3,1.5-0.5,2-0.8v-3.9h-4.3v-4.8h9.3V159z"/>
						<path fill="#FFFFFF" d="M150.3,137h5.2v8.9h10.2V137h5.2v23.8h-5.2v-10.3h-10.2v10.3h-5.2V137z"/>
						<path fill="#FFFFFF" d="M182.4,141.6h-6.8V137h18.8v4.6h-6.8v19.1h-5.2V141.6z"/>
					</g>
				</g>
			</g>
		</g>
	</g>
	<g id="Text_Properties">
	</g>
</g>
</svg>
