<?xml version="1.0" encoding="utf-8"?>
<!-- Generator: Adobe Illustrator 19.2.1, SVG Export Plug-In . SVG Version: 6.00 Build 0)  -->
<svg version="1.1" xmlns="http://www.w3.org/2000/svg" xmlns:xlink="http://www.w3.org/1999/xlink" x="0px" y="0px"
	 viewBox="0 0 243 173.1" enable-background="new 0 0 243 173.1" xml:space="preserve">
<g id="Layer_1">
	<g>
		<g>
			<g>
				<polygon fill="#052E47" points="121.9,2.1 83.1,39.3 121.9,67.2 131.8,33.5 				"/>
				<g>
					<defs>
						<polygon id="SVGID_77_" points="122,2.1 161,39.3 122,67.2 						"/>
					</defs>
					<clipPath id="SVGID_2_">
						<use xlink:href="#SVGID_77_"  overflow="visible"/>
					</clipPath>
					<polygon clip-path="url(#SVGID_2_)" fill="#3FA9F5" points="121.4,27.5 121.5,0 139.1,2.3 159.6,9.3 					"/>
					<polyline clip-path="url(#SVGID_2_)" fill="#0F8AD3" points="122,50.1 122,27.3 174.3,0.9 160.4,27.7 122.3,48.8 					"/>
					<polygon clip-path="url(#SVGID_2_)" fill="#095886" points="122,67.2 122,47.4 174.4,16 161.2,39.3 					"/>
				</g>
				<g opacity="0.7">
					<defs>
						<polygon id="SVGID_79_" opacity="0.7" points="122,2.1 83,39.3 122,67.2 						"/>
					</defs>
					<clipPath id="SVGID_4_">
						<use xlink:href="#SVGID_79_"  overflow="visible"/>
					</clipPath>
					<polygon clip-path="url(#SVGID_4_)" fill="#3FA9F5" points="122.8,27.5 122.9,0 105.5,2.3 85,9.3 					"/>
					<polyline clip-path="url(#SVGID_4_)" fill="#0F8AD3" points="122,50.1 122,27.3 70.5,0.9 84.8,27.7 122.3,48.8 					"/>
					<polygon clip-path="url(#SVGID_4_)" fill="#095886" points="122,67.2 122,47.4 70.4,16 83.1,39.3 					"/>
				</g>
			</g>
			<linearGradient id="SVGID_6_" gradientUnits="userSpaceOnUse" x1="126.2675" y1="5.1063" x2="102.6524" y2="53.1507">
				<stop  offset="0" style="stop-color:#FFFFFF"/>
				<stop  offset="0.7008" style="stop-color:#FFFFFF;stop-opacity:0"/>
			</linearGradient>
			<polygon opacity="0.71" fill="url(#SVGID_6_)" points="122,2.1 83.2,39.3 122,67.2 			"/>
			<linearGradient id="SVGID_8_" gradientUnits="userSpaceOnUse" x1="118.2667" y1="4.3833" x2="141.8817" y2="54.0564">
				<stop  offset="0" style="stop-color:#FFFFFF"/>
				<stop  offset="0.7008" style="stop-color:#FFFFFF;stop-opacity:0"/>
			</linearGradient>
			<polygon opacity="0.71" fill="url(#SVGID_8_)" points="122,2.1 161,39.3 122,67.2 			"/>
			<g>
				<linearGradient id="SVGID_9_" gradientUnits="userSpaceOnUse" x1="126.2675" y1="5.1063" x2="102.6524" y2="53.1507">
					<stop  offset="0" style="stop-color:#FFFFFF"/>
					<stop  offset="0.5" style="stop-color:#FFFFFF;stop-opacity:0"/>
				</linearGradient>
				<polygon opacity="0.68" fill="url(#SVGID_9_)" points="122,2.1 83.2,39.3 122,67.2 				"/>
				<linearGradient id="SVGID_10_" gradientUnits="userSpaceOnUse" x1="118.2667" y1="4.3833" x2="141.8817" y2="54.0564">
					<stop  offset="0" style="stop-color:#FFFFFF"/>
					<stop  offset="0.5" style="stop-color:#FFFFFF;stop-opacity:0"/>
				</linearGradient>
				<polygon opacity="0.68" fill="url(#SVGID_10_)" points="122,2.1 161,39.3 122,67.2 				"/>
			</g>
		</g>
		<g>
			<path fill-rule="evenodd" clip-rule="evenodd" fill="#0E82C6" d="M101,109c0,5.4-1.9,10.7-8.1,10.7c-6,0-8-5.2-8-10.7V92.2h-6.4
				V109c0,8.5,3.9,16.4,14.4,16.4c10.1,0,14.4-7.4,14.4-16.4V92.2H101V109z"/>
			<path fill-rule="evenodd" clip-rule="evenodd" fill="#0E82C6" d="M66.6,108.7c0-8.3-6.2-16.8-15.5-16.8c-9,0-15.7,7.9-15.7,16.7
				c0,8.4,6.3,16.6,15.6,16.7c2.2,0,4.3-0.5,6.2-1.3l-4.1-4.6c-0.6,0.2-1.3,0.2-2,0.2c-5.8,0-9.2-5.3-9.2-11c0-5.4,3.3-11,9.2-11
				c5.7,0,9.2,5.3,9.2,11c0,2.3-0.6,4.6-1.7,6.6l-2-2.3h-6.1l3.5,3.9l0,0l7.4,8.3h6.1l-4.7-5.2C65.1,116.8,66.6,112.9,66.6,108.7z"
				/>
			<polygon fill-rule="evenodd" clip-rule="evenodd" fill="#0E82C6" points="8.3,110.9 22.2,110.9 22.2,105.7 8.3,105.7 8.3,97.8 
				24.4,97.8 24.4,92.2 1.9,92.2 1.9,125.1 24.8,125.1 24.8,119.5 8.3,119.5 			"/>
			<path fill-rule="evenodd" clip-rule="evenodd" fill="#0E82C6" d="M186.1,92.2l-13,32.9h6.8l3-8.2h11.5l3,8.2h6.8l-12.9-32.9
				H186.1z M188.7,99.1l4.2,12.2h-8.5L188.7,99.1z"/>
			<path fill-rule="evenodd" clip-rule="evenodd" fill="#0E82C6" d="M234.2,112.7c3.6-1.5,5.9-5.4,5.9-9.6c0-5.4-4.4-10.9-10.5-10.9
				h-14.6v32.9h6.4v-11h6.3l6.9,11h7.2L234.2,112.7z M229.5,108.4h-8V97.8h7.7c2.3,0,4.4,2.3,4.4,5.3
				C233.7,106.1,231.9,108.4,229.5,108.4z"/>
			<polygon fill-rule="evenodd" clip-rule="evenodd" fill="#0E82C6" points="148.1,92.2 141.8,92.2 141.8,125.1 164.9,125.1 
				164.9,119.5 148.1,119.5 			"/>
			<rect x="121.1" y="92.2" fill-rule="evenodd" clip-rule="evenodd" fill="#0E82C6" width="6.4" height="32.9"/>
			<rect x="6.5" y="105.5" fill-rule="evenodd" clip-rule="evenodd" fill="#0E82C6" width="15.7" height="5.6"/>
		</g>
	</g>
	<g>
		<path fill="#FFFFFF" d="M18.9,144.7H12V140h19v4.7h-6.9v19.4h-5.3V144.7z"/>
		<path fill="#FFFFFF" d="M28.9,155.8c0-1.3,0.2-2.5,0.7-3.6c0.5-1.1,1.1-2,2-2.7c0.8-0.8,1.8-1.3,2.9-1.8c1.1-0.4,2.3-0.6,3.6-0.6
			c1.3,0,2.5,0.2,3.6,0.6c1.1,0.4,2.1,1,2.9,1.8c0.8,0.8,1.5,1.7,2,2.7s0.7,2.3,0.7,3.6s-0.2,2.5-0.7,3.6c-0.5,1.1-1.1,2-2,2.7
			c-0.8,0.8-1.8,1.3-2.9,1.8s-2.3,0.6-3.6,0.6c-1.3,0-2.5-0.2-3.6-0.6c-1.1-0.4-2.1-1-2.9-1.8c-0.8-0.8-1.5-1.7-2-2.7
			C29.1,158.3,28.9,157.1,28.9,155.8z M34,155.8c0,1.2,0.4,2.3,1.1,3c0.7,0.8,1.7,1.2,3,1.2s2.3-0.4,3-1.2c0.7-0.8,1.1-1.8,1.1-3
			c0-1.2-0.4-2.3-1.1-3s-1.7-1.2-3-1.2s-2.3,0.4-3,1.2C34.4,153.6,34,154.6,34,155.8z"/>
		<path fill="#FFFFFF" d="M50.7,147.6h4.7v2.2h0.1c0.2-0.3,0.5-0.6,0.8-0.9s0.7-0.6,1.2-0.8c0.4-0.2,0.9-0.5,1.4-0.6
			c0.5-0.2,1.1-0.2,1.7-0.2c1.2,0,2.3,0.2,3.3,0.6c1,0.4,1.9,1,2.6,1.8c0.7,0.8,1.3,1.7,1.6,2.7c0.4,1,0.6,2.2,0.6,3.4
			c0,1.2-0.2,2.3-0.5,3.3c-0.4,1.1-0.9,2-1.5,2.8c-0.6,0.8-1.4,1.5-2.4,2c-0.9,0.5-2,0.7-3.2,0.7c-1.1,0-2.1-0.2-3-0.5
			s-1.7-0.9-2.3-1.7h-0.1v9.5h-5.1V147.6z M55.4,155.8c0,1.2,0.4,2.3,1.1,3c0.7,0.8,1.7,1.2,3,1.2s2.3-0.4,3-1.2
			c0.7-0.8,1.1-1.8,1.1-3c0-1.2-0.4-2.3-1.1-3s-1.7-1.2-3-1.2s-2.3,0.4-3,1.2S55.4,154.6,55.4,155.8z"/>
		<path fill="#FFFFFF" d="M76.6,158.7l9.4-8.4c0.5-0.4,1-0.9,1.4-1.5s0.7-1.2,0.7-1.9c0-0.8-0.3-1.5-0.9-1.9
			c-0.6-0.5-1.3-0.7-2.1-0.7c-1,0-1.7,0.3-2.2,0.9c-0.5,0.6-0.8,1.3-0.9,2.2l-5.1-0.4c0.1-1.2,0.3-2.3,0.8-3.2
			c0.5-0.9,1.1-1.7,1.8-2.3c0.7-0.6,1.6-1.1,2.6-1.4c1-0.3,2.1-0.5,3.3-0.5c1.1,0,2.1,0.2,3.1,0.5c1,0.3,1.8,0.8,2.5,1.4
			c0.7,0.6,1.3,1.4,1.6,2.3c0.4,0.9,0.6,2,0.6,3.2c0,0.8-0.1,1.5-0.2,2.1c-0.2,0.6-0.4,1.2-0.7,1.7c-0.3,0.5-0.6,1-1,1.4
			c-0.4,0.4-0.8,0.9-1.3,1.3l-7.3,6.3h10.7v4.5H76.6V158.7z"/>
		<path fill="#FFFFFF" d="M112.7,144.5h-9.6l-0.1,3.7c0.5-0.2,1.2-0.3,2.1-0.3c1.2,0,2.3,0.2,3.4,0.5c1,0.4,1.9,0.9,2.6,1.6
			c0.7,0.7,1.3,1.5,1.7,2.5c0.4,1,0.6,2.1,0.6,3.3c0,1.4-0.2,2.6-0.7,3.6c-0.5,1.1-1.1,2-1.9,2.7s-1.8,1.3-2.9,1.7s-2.3,0.6-3.7,0.6
			c-2.1,0-3.8-0.5-5.2-1.5c-1.4-1-2.4-2.6-2.9-4.6l5.3-1.2c0.1,0.9,0.5,1.6,1.1,2.1c0.6,0.5,1.3,0.8,2.2,0.8c1.1,0,2-0.3,2.6-1
			c0.6-0.7,1-1.5,1-2.6c0-0.8-0.2-1.4-0.5-2c-0.3-0.5-0.8-0.9-1.3-1.2c-0.5-0.3-1.1-0.5-1.8-0.6c-0.7-0.1-1.3-0.2-2-0.2
			c-0.8,0-1.7,0.1-2.5,0.2c-0.9,0.2-1.7,0.4-2.5,0.6l0.3-13.3h14.6V144.5z"/>
		<path fill="#FFFFFF" d="M134.7,145.9c-0.4-0.5-1-0.9-1.8-1.2c-0.7-0.3-1.4-0.4-2.1-0.4c-0.4,0-0.8,0-1.2,0.1
			c-0.4,0.1-0.8,0.2-1.2,0.4c-0.4,0.2-0.7,0.4-0.9,0.8s-0.3,0.7-0.3,1.2c0,0.7,0.3,1.3,0.8,1.7s1.2,0.7,2.1,1
			c0.8,0.3,1.7,0.5,2.7,0.8c1,0.3,1.8,0.7,2.7,1.2c0.8,0.5,1.5,1.2,2.1,2s0.8,2,0.8,3.4c0,1.3-0.2,2.5-0.7,3.5c-0.5,1-1.2,1.8-2,2.5
			c-0.9,0.7-1.8,1.1-3,1.5s-2.3,0.5-3.6,0.5c-1.6,0-3-0.2-4.4-0.7c-1.3-0.5-2.6-1.2-3.7-2.3l3.8-4.1c0.5,0.7,1.2,1.3,2.1,1.7
			c0.8,0.4,1.7,0.6,2.6,0.6c0.4,0,0.9-0.1,1.3-0.2c0.4-0.1,0.8-0.3,1.2-0.5c0.4-0.2,0.6-0.5,0.9-0.8c0.2-0.3,0.3-0.7,0.3-1.1
			c0-0.7-0.3-1.3-0.8-1.7c-0.6-0.4-1.3-0.8-2.1-1.1c-0.8-0.3-1.7-0.6-2.7-0.9s-1.9-0.7-2.7-1.2c-0.8-0.5-1.5-1.2-2.1-2
			c-0.6-0.8-0.8-1.9-0.8-3.2c0-1.3,0.3-2.4,0.8-3.4c0.5-1,1.2-1.8,2-2.4s1.8-1.2,2.9-1.5c1.1-0.3,2.3-0.5,3.4-0.5
			c1.4,0,2.7,0.2,3.9,0.6c1.3,0.4,2.4,1,3.4,1.9L134.7,145.9z"/>
		<path fill="#FFFFFF" d="M156.9,164.1H152v-2.2h-0.1c-0.2,0.3-0.4,0.6-0.7,1c-0.3,0.3-0.6,0.6-1,0.8c-0.4,0.2-0.9,0.5-1.4,0.6
			c-0.5,0.2-1.1,0.2-1.7,0.2c-1.3,0-2.3-0.2-3.1-0.6c-0.8-0.4-1.4-0.9-1.9-1.6c-0.4-0.7-0.7-1.5-0.9-2.5c-0.1-1-0.2-2-0.2-3.1v-9.1
			h5.1v8.1c0,0.5,0,1,0.1,1.5c0,0.5,0.1,1,0.3,1.4c0.2,0.4,0.4,0.8,0.8,1.1c0.4,0.3,0.9,0.4,1.5,0.4c0.7,0,1.2-0.1,1.6-0.4
			c0.4-0.2,0.7-0.6,0.9-1c0.2-0.4,0.4-0.8,0.4-1.3c0.1-0.5,0.1-1,0.1-1.6v-8.2h5.1V164.1z"/>
		<path fill="#FFFFFF" d="M160.5,147.6h5.1v2.7h0.1c0.5-1,1.2-1.8,1.9-2.3c0.7-0.5,1.7-0.8,2.8-0.8c0.3,0,0.6,0,0.9,0
			c0.3,0,0.6,0.1,0.8,0.1v4.7c-0.4-0.1-0.7-0.2-1.1-0.3c-0.4-0.1-0.7-0.1-1.1-0.1c-1,0-1.7,0.1-2.3,0.4c-0.6,0.3-1,0.7-1.3,1.1
			c-0.3,0.5-0.5,1.1-0.6,1.8c-0.1,0.7-0.1,1.4-0.1,2.2v6.9h-5.1V147.6z"/>
		<path fill="#FFFFFF" d="M174,147.6h5.5l4.2,11.2h0.1l3.9-11.2h5.1l-6.5,16.5h-5.4L174,147.6z"/>
		<path fill="#FFFFFF" d="M210.3,161.2c-0.8,1-1.8,1.8-3.1,2.4c-1.2,0.6-2.5,0.9-3.9,0.9c-1.3,0-2.5-0.2-3.6-0.6
			c-1.1-0.4-2.1-1-2.9-1.8c-0.8-0.8-1.5-1.7-2-2.7c-0.5-1.1-0.7-2.3-0.7-3.6s0.2-2.5,0.7-3.6s1.1-2,2-2.7c0.8-0.8,1.8-1.3,2.9-1.8
			c1.1-0.4,2.3-0.6,3.6-0.6c1.2,0,2.2,0.2,3.2,0.6c1,0.4,1.8,1,2.4,1.8c0.7,0.8,1.2,1.7,1.5,2.7c0.4,1.1,0.5,2.3,0.5,3.6v1.6h-11.8
			c0.2,1,0.6,1.8,1.3,2.3c0.7,0.6,1.5,0.9,2.5,0.9c0.8,0,1.5-0.2,2.1-0.6s1.1-0.9,1.5-1.4L210.3,161.2z M206,153.9
			c0-0.9-0.3-1.6-0.9-2.2c-0.6-0.6-1.3-0.9-2.3-0.9c-0.6,0-1.1,0.1-1.5,0.3c-0.4,0.2-0.8,0.4-1.1,0.7c-0.3,0.3-0.5,0.6-0.7,1
			s-0.3,0.8-0.3,1.2H206z"/>
		<path fill="#FFFFFF" d="M223,166.8c-0.3,0.9-0.7,1.7-1,2.3c-0.3,0.7-0.7,1.3-1.2,1.7c-0.5,0.5-1.1,0.8-1.9,1.1
			c-0.7,0.2-1.7,0.4-3,0.4c-1.3,0-2.6-0.2-3.8-0.6l0.7-4.2c0.8,0.3,1.6,0.5,2.4,0.5c0.6,0,1-0.1,1.4-0.2c0.4-0.1,0.7-0.3,0.9-0.5
			c0.2-0.2,0.4-0.5,0.6-0.9c0.2-0.3,0.3-0.7,0.5-1.2l0.4-1l-7.2-16.7h5.5l4.2,10.9h0.1l3.6-10.9h5.2L223,166.8z"/>
	</g>
</g>
<g id="specctr">
	<g id="Spacing">
	</g>
	<g id="Object_Properties">
	</g>
	<g id="Dimensions">
	</g>
	<g id="Text_Properties">
	</g>
</g>
</svg>
