<?xml version="1.0" encoding="utf-8"?>
<!-- Generator: Adobe Illustrator 19.2.1, SVG Export Plug-In . SVG Version: 6.00 Build 0)  -->
<svg version="1.1" xmlns="http://www.w3.org/2000/svg" xmlns:xlink="http://www.w3.org/1999/xlink" x="0px" y="0px"
	 viewBox="0 0 243 173.1" enable-background="new 0 0 243 173.1" xml:space="preserve">
<g id="Layer_1">
</g>
<g id="specctr">
	<g id="Spacing">
	</g>
	<g id="Object_Properties">
	</g>
	<g id="Dimensions">
	</g>
	<g id="Text_Properties">
	</g>
	<g>
		<g>
			<polygon fill="#052E47" points="121.9,2.1 83.1,39.3 121.9,67.2 131.8,33.5 			"/>
			<g>
				<defs>
					<polygon id="SVGID_143_" points="122,2.1 161,39.3 122,67.2 					"/>
				</defs>
				<clipPath id="SVGID_2_">
					<use xlink:href="#SVGID_143_"  overflow="visible"/>
				</clipPath>
				<polygon clip-path="url(#SVGID_2_)" fill="#3FA9F5" points="121.4,27.5 121.5,0 139.1,2.3 159.6,9.3 				"/>
				<polyline clip-path="url(#SVGID_2_)" fill="#0F8AD3" points="122,50.1 122,27.3 174.3,0.9 160.4,27.7 122.3,48.8 				"/>
				<polygon clip-path="url(#SVGID_2_)" fill="#095886" points="122,67.2 122,47.4 174.4,16 161.2,39.3 				"/>
			</g>
			<g opacity="0.7">
				<defs>
					<polygon id="SVGID_145_" opacity="0.7" points="122,2.1 83,39.3 122,67.2 					"/>
				</defs>
				<clipPath id="SVGID_4_">
					<use xlink:href="#SVGID_145_"  overflow="visible"/>
				</clipPath>
				<polygon clip-path="url(#SVGID_4_)" fill="#3FA9F5" points="122.8,27.5 122.9,0 105.5,2.3 85,9.3 				"/>
				<polyline clip-path="url(#SVGID_4_)" fill="#0F8AD3" points="122,50.1 122,27.3 70.5,0.9 84.8,27.7 122.3,48.8 				"/>
				<polygon clip-path="url(#SVGID_4_)" fill="#095886" points="122,67.2 122,47.4 70.4,16 83.2,39.3 				"/>
			</g>
		</g>
		<linearGradient id="SVGID_6_" gradientUnits="userSpaceOnUse" x1="126.2675" y1="5.1063" x2="102.6524" y2="53.1507">
			<stop  offset="0" style="stop-color:#FFFFFF"/>
			<stop  offset="0.7008" style="stop-color:#FFFFFF;stop-opacity:0"/>
		</linearGradient>
		<polygon opacity="0.71" fill="url(#SVGID_6_)" points="122,2.1 83.2,39.3 122,67.2 		"/>
		<linearGradient id="SVGID_8_" gradientUnits="userSpaceOnUse" x1="118.2667" y1="4.3833" x2="141.8817" y2="54.0564">
			<stop  offset="0" style="stop-color:#FFFFFF"/>
			<stop  offset="0.7008" style="stop-color:#FFFFFF;stop-opacity:0"/>
		</linearGradient>
		<polygon opacity="0.71" fill="url(#SVGID_8_)" points="122,2.1 161,39.3 122,67.2 		"/>
		<g>
			<linearGradient id="SVGID_9_" gradientUnits="userSpaceOnUse" x1="126.2675" y1="5.1063" x2="102.6524" y2="53.1507">
				<stop  offset="0" style="stop-color:#FFFFFF"/>
				<stop  offset="0.5" style="stop-color:#FFFFFF;stop-opacity:0"/>
			</linearGradient>
			<polygon opacity="0.68" fill="url(#SVGID_9_)" points="122,2.1 83.2,39.3 122,67.2 			"/>
			<linearGradient id="SVGID_10_" gradientUnits="userSpaceOnUse" x1="118.2667" y1="4.3833" x2="141.8817" y2="54.0564">
				<stop  offset="0" style="stop-color:#FFFFFF"/>
				<stop  offset="0.5" style="stop-color:#FFFFFF;stop-opacity:0"/>
			</linearGradient>
			<polygon opacity="0.68" fill="url(#SVGID_10_)" points="122,2.1 161,39.3 122,67.2 			"/>
		</g>
	</g>
	<g>
		<path fill-rule="evenodd" clip-rule="evenodd" fill="#0E82C6" d="M101,109c0,5.4-1.9,10.7-8.1,10.7c-6,0-8-5.2-8-10.7V92.2h-6.4
			V109c0,8.5,3.9,16.4,14.4,16.4c10.1,0,14.4-7.4,14.4-16.4V92.2H101V109z"/>
		<path fill-rule="evenodd" clip-rule="evenodd" fill="#0E82C6" d="M66.6,108.7c0-8.3-6.2-16.8-15.5-16.8c-9,0-15.7,7.9-15.7,16.7
			c0,8.4,6.3,16.6,15.6,16.7c2.2,0,4.3-0.5,6.2-1.3l-4.1-4.6c-0.6,0.2-1.3,0.2-2,0.2c-5.8,0-9.2-5.3-9.2-11c0-5.4,3.3-11,9.2-11
			c5.7,0,9.2,5.3,9.2,11c0,2.3-0.6,4.6-1.7,6.6l-2-2.3h-6.1l3.5,3.9l0,0l7.4,8.3h6.1l-4.7-5.2C65.1,116.8,66.6,112.9,66.6,108.7z"/>
		<polygon fill-rule="evenodd" clip-rule="evenodd" fill="#0E82C6" points="8.3,110.9 22.2,110.9 22.2,105.7 8.3,105.7 8.3,97.8 
			24.3,97.8 24.3,92.2 1.9,92.2 1.9,125.1 24.8,125.1 24.8,119.5 8.3,119.5 		"/>
		<path fill-rule="evenodd" clip-rule="evenodd" fill="#0E82C6" d="M186.1,92.2l-13,32.9h6.8l3-8.2h11.5l3,8.2h6.8l-12.9-32.9H186.1
			z M188.7,99.1l4.2,12.2h-8.5L188.7,99.1z"/>
		<path fill-rule="evenodd" clip-rule="evenodd" fill="#0E82C6" d="M234.2,112.7c3.6-1.5,5.9-5.4,5.9-9.6c0-5.4-4.4-10.9-10.5-10.9
			h-14.6v32.9h6.4v-11h6.3l6.9,11h7.2L234.2,112.7z M229.5,108.4h-8V97.8h7.7c2.3,0,4.4,2.3,4.4,5.3
			C233.7,106.1,231.9,108.4,229.5,108.4z"/>
		<polygon fill-rule="evenodd" clip-rule="evenodd" fill="#0E82C6" points="148.1,92.2 141.7,92.2 141.7,125.1 164.9,125.1 
			164.9,119.5 148.1,119.5 		"/>
		<rect x="121.1" y="92.2" fill-rule="evenodd" clip-rule="evenodd" fill="#0E82C6" width="6.4" height="32.9"/>
		<rect x="6.5" y="105.5" fill-rule="evenodd" clip-rule="evenodd" fill="#0E82C6" width="15.7" height="5.6"/>
	</g>
	<g>
		<text transform="matrix(1 0 0 1 16.7932 164.0754)"><tspan x="0" y="0" fill="#FFFFFF" font-family="'AvenirLTCom-Black'" font-size="34.6593px">BoardEdge</tspan><tspan x="183.6" y="-3.3" fill="#FFFFFF" font-family="'AvenirLTCom-Black'" font-size="26.6889px">™</tspan></text>
	</g>
</g>
</svg>
