<?xml version="1.0" encoding="utf-8"?>
<!-- Generator: Adobe Illustrator 19.2.1, SVG Export Plug-In . SVG Version: 6.00 Build 0)  -->
<svg version="1.1" xmlns="http://www.w3.org/2000/svg" xmlns:xlink="http://www.w3.org/1999/xlink" x="0px" y="0px"
	 viewBox="0 0 243 166.1" enable-background="new 0 0 243 166.1" xml:space="preserve">
<g id="Layer_1">
	<g>
		<g>
			<g>
				<polygon fill="#052E47" points="121.9,2.1 83.1,39.3 121.9,67.2 131.8,33.5 				"/>
				<g>
					<defs>
						<polygon id="SVGID_33_" points="122,2.1 161,39.3 122,67.2 						"/>
					</defs>
					<clipPath id="SVGID_2_">
						<use xlink:href="#SVGID_33_"  overflow="visible"/>
					</clipPath>
					<polygon clip-path="url(#SVGID_2_)" fill="#3FA9F5" points="121.4,27.5 121.5,0 139.1,2.3 159.6,9.3 					"/>
					<polyline clip-path="url(#SVGID_2_)" fill="#0F8AD3" points="122,50.1 122,27.3 174.3,0.9 160.4,27.7 122.3,48.8 					"/>
					<polygon clip-path="url(#SVGID_2_)" fill="#095886" points="122,67.2 122,47.4 174.4,16 161.2,39.3 					"/>
				</g>
				<g opacity="0.7">
					<defs>
						<polygon id="SVGID_35_" opacity="0.7" points="122,2.1 83,39.3 122,67.2 						"/>
					</defs>
					<clipPath id="SVGID_4_">
						<use xlink:href="#SVGID_35_"  overflow="visible"/>
					</clipPath>
					<polygon clip-path="url(#SVGID_4_)" fill="#3FA9F5" points="122.8,27.5 122.9,0 105.5,2.3 85,9.3 					"/>
					<polyline clip-path="url(#SVGID_4_)" fill="#0F8AD3" points="122,50.1 122,27.3 70.5,0.9 84.8,27.7 122.3,48.8 					"/>
					<polygon clip-path="url(#SVGID_4_)" fill="#095886" points="122,67.2 122,47.4 70.4,16 83.1,39.3 					"/>
				</g>
			</g>
			<linearGradient id="SVGID_6_" gradientUnits="userSpaceOnUse" x1="126.2675" y1="5.1063" x2="102.6524" y2="53.1507">
				<stop  offset="0" style="stop-color:#FFFFFF"/>
				<stop  offset="0.7008" style="stop-color:#FFFFFF;stop-opacity:0"/>
			</linearGradient>
			<polygon opacity="0.71" fill="url(#SVGID_6_)" points="122,2.1 83.2,39.3 122,67.2 			"/>
			<linearGradient id="SVGID_8_" gradientUnits="userSpaceOnUse" x1="118.2667" y1="4.3833" x2="141.8817" y2="54.0564">
				<stop  offset="0" style="stop-color:#FFFFFF"/>
				<stop  offset="0.7008" style="stop-color:#FFFFFF;stop-opacity:0"/>
			</linearGradient>
			<polygon opacity="0.71" fill="url(#SVGID_8_)" points="122,2.1 161,39.3 122,67.2 			"/>
			<g>
				<linearGradient id="SVGID_9_" gradientUnits="userSpaceOnUse" x1="126.2675" y1="5.1063" x2="102.6524" y2="53.1507">
					<stop  offset="0" style="stop-color:#FFFFFF"/>
					<stop  offset="0.5" style="stop-color:#FFFFFF;stop-opacity:0"/>
				</linearGradient>
				<polygon opacity="0.68" fill="url(#SVGID_9_)" points="122,2.1 83.2,39.3 122,67.2 				"/>
				<linearGradient id="SVGID_10_" gradientUnits="userSpaceOnUse" x1="118.2667" y1="4.3833" x2="141.8817" y2="54.0564">
					<stop  offset="0" style="stop-color:#FFFFFF"/>
					<stop  offset="0.5" style="stop-color:#FFFFFF;stop-opacity:0"/>
				</linearGradient>
				<polygon opacity="0.68" fill="url(#SVGID_10_)" points="122,2.1 161,39.3 122,67.2 				"/>
			</g>
		</g>
		<g>
			<path fill-rule="evenodd" clip-rule="evenodd" fill="#0E82C6" d="M101,109c0,5.4-1.9,10.7-8.1,10.7c-6,0-8-5.2-8-10.7V92.2h-6.4
				V109c0,8.5,3.9,16.4,14.4,16.4c10.1,0,14.4-7.4,14.4-16.4V92.2H101V109z"/>
			<path fill-rule="evenodd" clip-rule="evenodd" fill="#0E82C6" d="M66.6,108.7c0-8.3-6.2-16.8-15.5-16.8c-9,0-15.7,7.9-15.7,16.7
				c0,8.4,6.3,16.6,15.6,16.7c2.2,0,4.3-0.5,6.2-1.3l-4.1-4.6c-0.6,0.2-1.3,0.2-2,0.2c-5.8,0-9.2-5.3-9.2-11c0-5.4,3.3-11,9.2-11
				c5.7,0,9.2,5.3,9.2,11c0,2.3-0.6,4.6-1.7,6.6l-2-2.3h-6.1l3.5,3.9l0,0l7.4,8.3h6.1l-4.7-5.2C65.1,116.8,66.6,112.9,66.6,108.7z"
				/>
			<polygon fill-rule="evenodd" clip-rule="evenodd" fill="#0E82C6" points="8.3,110.9 22.2,110.9 22.2,105.7 8.3,105.7 8.3,97.8 
				24.4,97.8 24.4,92.2 1.9,92.2 1.9,125.1 24.8,125.1 24.8,119.5 8.3,119.5 			"/>
			<path fill-rule="evenodd" clip-rule="evenodd" fill="#0E82C6" d="M186.1,92.2l-13,32.9h6.8l3-8.2h11.5l3,8.2h6.8l-12.9-32.9
				H186.1z M188.7,99.1l4.2,12.2h-8.5L188.7,99.1z"/>
			<path fill-rule="evenodd" clip-rule="evenodd" fill="#0E82C6" d="M234.2,112.7c3.6-1.5,5.9-5.4,5.9-9.6c0-5.4-4.4-10.9-10.5-10.9
				h-14.6v32.9h6.4v-11h6.3l6.9,11h7.2L234.2,112.7z M229.5,108.4h-8V97.8h7.7c2.3,0,4.4,2.3,4.4,5.3
				C233.7,106.1,231.9,108.4,229.5,108.4z"/>
			<polygon fill-rule="evenodd" clip-rule="evenodd" fill="#0E82C6" points="148.1,92.2 141.8,92.2 141.8,125.1 164.9,125.1 
				164.9,119.5 148.1,119.5 			"/>
			<rect x="121.1" y="92.2" fill-rule="evenodd" clip-rule="evenodd" fill="#0E82C6" width="6.4" height="32.9"/>
			<rect x="6.5" y="105.5" fill-rule="evenodd" clip-rule="evenodd" fill="#0E82C6" width="15.7" height="5.6"/>
		</g>
	</g>
	<g>
		<path fill="#FFFFFF" d="M48.4,140.2h5.2V164h-5.2V140.2z"/>
		<path fill="#FFFFFF" d="M60.4,140.2h7.1l10.1,16.5h0.1v-16.5H83V164h-6.9l-10.4-16.9h-0.1V164h-5.2V140.2z"/>
		<path fill="#FFFFFF" d="M101.6,146c-0.4-0.5-1-0.9-1.7-1.2c-0.7-0.3-1.4-0.4-2.1-0.4c-0.4,0-0.8,0-1.2,0.1
			c-0.4,0.1-0.8,0.2-1.1,0.4c-0.4,0.2-0.7,0.4-0.9,0.8c-0.2,0.3-0.3,0.7-0.3,1.1c0,0.7,0.3,1.3,0.8,1.6c0.5,0.4,1.2,0.7,2,1
			c0.8,0.3,1.7,0.5,2.6,0.8c0.9,0.3,1.8,0.7,2.6,1.1c0.8,0.5,1.5,1.2,2,2c0.5,0.8,0.8,1.9,0.8,3.3c0,1.3-0.2,2.5-0.7,3.5
			c-0.5,1-1.2,1.8-2,2.5c-0.8,0.7-1.8,1.1-2.9,1.4c-1.1,0.3-2.3,0.5-3.5,0.5c-1.5,0-3-0.2-4.3-0.7c-1.3-0.5-2.6-1.2-3.7-2.3l3.7-4.1
			c0.5,0.7,1.2,1.3,2,1.7s1.7,0.6,2.5,0.6c0.4,0,0.9-0.1,1.3-0.2c0.4-0.1,0.8-0.3,1.2-0.5c0.3-0.2,0.6-0.5,0.8-0.8
			c0.2-0.3,0.3-0.7,0.3-1.1c0-0.7-0.3-1.3-0.8-1.7c-0.5-0.4-1.2-0.8-2.1-1.1c-0.8-0.3-1.7-0.6-2.7-0.9c-1-0.3-1.9-0.7-2.7-1.2
			c-0.8-0.5-1.5-1.1-2.1-1.9c-0.5-0.8-0.8-1.9-0.8-3.2c0-1.3,0.3-2.4,0.8-3.4c0.5-1,1.2-1.8,2-2.4c0.8-0.7,1.8-1.1,2.9-1.5
			c1.1-0.3,2.2-0.5,3.4-0.5c1.3,0,2.6,0.2,3.9,0.6c1.3,0.4,2.4,1,3.4,1.9L101.6,146z"/>
		<path fill="#FFFFFF" d="M111.1,140.2h5.2V164h-5.2V140.2z"/>
		<path fill="#FFFFFF" d="M144.7,162.3c-1.5,0.8-3.2,1.4-4.8,1.7s-3.4,0.5-5.1,0.5c-1.9,0-3.6-0.3-5.1-0.9c-1.6-0.6-2.9-1.4-4.1-2.5
			c-1.1-1.1-2-2.4-2.7-4s-1-3.3-1-5.2c0-1.9,0.3-3.6,1-5.2c0.6-1.5,1.5-2.9,2.7-4c1.1-1.1,2.5-1.9,4.1-2.5c1.6-0.6,3.3-0.9,5.1-0.9
			c1.9,0,3.7,0.2,5.3,0.7c1.6,0.5,3,1.3,4.2,2.4l-3.7,4c-0.7-0.7-1.5-1.3-2.4-1.7c-0.9-0.4-2-0.6-3.4-0.6c-1.1,0-2.1,0.2-3,0.6
			c-0.9,0.4-1.7,0.9-2.3,1.6c-0.7,0.7-1.1,1.5-1.5,2.4c-0.3,0.9-0.5,2-0.5,3.1c0,1.1,0.2,2.1,0.5,3.1c0.3,0.9,0.8,1.7,1.5,2.4
			c0.6,0.7,1.4,1.2,2.3,1.6c0.9,0.4,1.9,0.6,3,0.6c1.1,0,2.1-0.1,3-0.4c0.8-0.3,1.5-0.5,2-0.8v-3.9h-4.3v-4.8h9.3V162.3z"/>
		<path fill="#FFFFFF" d="M151.3,140.2h5.2v8.9h10.2v-8.9h5.2V164h-5.2v-10.3h-10.2V164h-5.2V140.2z"/>
		<path fill="#FFFFFF" d="M183.4,144.8h-6.8v-4.6h18.8v4.6h-6.8V164h-5.2V144.8z"/>
	</g>
</g>
<g id="specctr">
	<g id="Spacing">
	</g>
	<g id="Object_Properties">
	</g>
	<g id="Dimensions">
	</g>
	<g id="Text_Properties">
	</g>
</g>
</svg>
