<?xml version="1.0" encoding="utf-8"?>
<!-- Generator: Adobe Illustrator 19.2.1, SVG Export Plug-In . SVG Version: 6.00 Build 0)  -->
<svg version="1.1" xmlns="http://www.w3.org/2000/svg" xmlns:xlink="http://www.w3.org/1999/xlink" x="0px" y="0px"
	 viewBox="0 0 242 126.1" enable-background="new 0 0 242 126.1" xml:space="preserve">
<g id="Layer_1">
</g>
<g id="specctr">
	<g id="Spacing">
	</g>
	<g id="Object_Properties">
	</g>
	<g id="Dimensions">
		<g>
			<g id="XMLID_52_">
				<g>
					<polygon fill="#052E47" points="120.9,2 82.1,38.6 120.9,66 130.8,32.9 					"/>
					<g>
						<defs>
							<polygon id="SVGID_117_" points="121,2 160,38.6 121,66 							"/>
						</defs>
						<clipPath id="SVGID_2_">
							<use xlink:href="#SVGID_117_"  overflow="visible"/>
						</clipPath>
						<polygon clip-path="url(#SVGID_2_)" fill="#3FA9F5" points="120.4,27.1 120.5,0 138.1,2.3 158.6,9.1 						"/>
						<polyline clip-path="url(#SVGID_2_)" fill="#0F8AD3" points="121,49.1 121,26.8 173.3,0.9 159.4,27.2 121.3,47.8 						"/>
						<polygon clip-path="url(#SVGID_2_)" fill="#095886" points="121,66 121,46.6 173.4,15.7 160.2,38.6 						"/>
					</g>
					<g opacity="0.7">
						<defs>
							<polygon id="SVGID_119_" opacity="0.7" points="121,2 82,38.6 121,66 							"/>
						</defs>
						<clipPath id="SVGID_4_">
							<use xlink:href="#SVGID_119_"  overflow="visible"/>
						</clipPath>
						<polygon clip-path="url(#SVGID_4_)" fill="#3FA9F5" points="121.8,27 121.9,0 104.5,2.3 84,9.1 						"/>
						<polyline clip-path="url(#SVGID_4_)" fill="#0F8AD3" points="121,49.1 121,26.8 69.5,0.9 83.8,27.2 121.3,47.8 						"/>
						<polygon clip-path="url(#SVGID_4_)" fill="#095886" points="121,66 121,46.6 69.4,15.7 82.2,38.6 						"/>
					</g>
				</g>
				<linearGradient id="SVGID_6_" gradientUnits="userSpaceOnUse" x1="124.9179" y1="4.8816" x2="101.7179" y2="52.0816">
					<stop  offset="0" style="stop-color:#FFFFFF"/>
					<stop  offset="0.7008" style="stop-color:#FFFFFF;stop-opacity:0"/>
				</linearGradient>
				<polygon opacity="0.71" fill="url(#SVGID_6_)" points="121,2 82.2,38.6 121,66 				"/>
				<linearGradient id="SVGID_8_" gradientUnits="userSpaceOnUse" x1="117.6118" y1="4.1734" x2="140.8118" y2="52.9734">
					<stop  offset="0" style="stop-color:#FFFFFF"/>
					<stop  offset="0.7008" style="stop-color:#FFFFFF;stop-opacity:0"/>
				</linearGradient>
				<polygon opacity="0.71" fill="url(#SVGID_8_)" points="121,2 160,38.6 121,66 				"/>
				<g>
					<linearGradient id="SVGID_9_" gradientUnits="userSpaceOnUse" x1="124.9179" y1="4.8816" x2="101.7179" y2="52.0816">
						<stop  offset="0" style="stop-color:#FFFFFF"/>
						<stop  offset="0.5" style="stop-color:#FFFFFF;stop-opacity:0"/>
					</linearGradient>
					<polygon opacity="0.68" fill="url(#SVGID_9_)" points="121,2 82.2,38.6 121,66 					"/>
					<linearGradient id="SVGID_10_" gradientUnits="userSpaceOnUse" x1="117.6118" y1="4.1734" x2="140.8118" y2="52.9734">
						<stop  offset="0" style="stop-color:#FFFFFF"/>
						<stop  offset="0.5" style="stop-color:#FFFFFF;stop-opacity:0"/>
					</linearGradient>
					<polygon opacity="0.68" fill="url(#SVGID_10_)" points="121,2 160,38.6 121,66 					"/>
				</g>
			</g>
			<g>
				<path fill-rule="evenodd" clip-rule="evenodd" fill="#0E82C6" d="M100,108.4c0,5.4-1.9,10.7-8.1,10.7c-6,0-8-5.2-8-10.7V91.7
					h-6.4v16.7c0,8.5,3.9,16.3,14.4,16.3c10.1,0,14.4-7.3,14.4-16.3V91.7H100V108.4z"/>
				<path fill-rule="evenodd" clip-rule="evenodd" fill="#0E82C6" d="M65.6,108.2c0-8.3-6.2-16.7-15.5-16.7c-9,0-15.7,7.9-15.7,16.6
					c0,8.4,6.3,16.6,15.6,16.6c2.2,0,4.3-0.5,6.2-1.3l-4.1-4.6c-0.6,0.2-1.3,0.2-2,0.2c-5.8,0-9.2-5.3-9.2-11c0-5.4,3.3-11,9.2-11
					c5.7,0,9.2,5.3,9.2,11c0,2.3-0.6,4.6-1.7,6.6l-2-2.3h-6.1l3.5,3.9l0,0l7.4,8.3h6.1l-4.7-5.2C64.1,116.2,65.6,112.3,65.6,108.2z"
					/>
				<polygon fill-rule="evenodd" clip-rule="evenodd" fill="#0E82C6" points="7.3,110.3 21.2,110.3 21.2,105.2 7.3,105.2 7.3,97.2 
					23.3,97.2 23.3,91.7 0.9,91.7 0.9,124.5 23.8,124.5 23.8,118.9 7.3,118.9 				"/>
				<path fill-rule="evenodd" clip-rule="evenodd" fill="#0E82C6" d="M185.1,91.7l-13,32.8h6.8l3-8.2h11.5l3,8.2h6.8l-12.9-32.8
					H185.1z M187.7,98.5l4.2,12.2h-8.5L187.7,98.5z"/>
				<path fill-rule="evenodd" clip-rule="evenodd" fill="#0E82C6" d="M233.2,112.1c3.6-1.5,5.9-5.4,5.9-9.6
					c0-5.4-4.4-10.9-10.5-10.9h-14.6v32.8h6.4v-11h6.3l6.9,11h7.2L233.2,112.1z M228.5,107.9h-8V97.2h7.7c2.3,0,4.4,2.3,4.4,5.3
					C232.7,105.5,230.9,107.9,228.5,107.9z"/>
				<polygon fill-rule="evenodd" clip-rule="evenodd" fill="#0E82C6" points="147.1,91.7 140.7,91.7 140.7,124.5 163.9,124.5 
					163.9,118.9 147.1,118.9 				"/>
				<rect x="120.1" y="91.7" fill-rule="evenodd" clip-rule="evenodd" fill="#0E82C6" width="6.4" height="32.8"/>
				<rect x="5.5" y="105" fill-rule="evenodd" clip-rule="evenodd" fill="#0E82C6" width="15.7" height="5.6"/>
			</g>
		</g>
	</g>
	<g id="Text_Properties">
	</g>
</g>
</svg>
